<?xml version="1.0" encoding="UTF-8"?>
<svg id="Layer_2" data-name="Layer 2" xmlns="http://www.w3.org/2000/svg" viewBox="0 0 899.31 258.47">
  <defs>
    <style>
      .cls-1 {
        font-size: 50.63px;
      }

      .cls-1, .cls-2, .cls-3, .cls-4, .cls-5 {
        fill: #fff;
      }

      .cls-1, .cls-3, .cls-4 {
        font-family: HedvigLettersSerif-Regular, 'Hedvig Letters Serif';
      }

      .cls-6 {
        letter-spacing: 0em;
      }

      .cls-7 {
        letter-spacing: -.12em;
      }

      .cls-3 {
        font-size: 48.7px;
      }

      .cls-8 {
        letter-spacing: -.03em;
      }

      .cls-9 {
        fill: none;
        stroke: #fff;
        stroke-miterlimit: 10;
        stroke-width: 2px;
      }

      .cls-4 {
        font-size: 47.79px;
      }

      .cls-5 {
        font-family: Ephesis-Regular, Ephesis;
        font-size: 70px;
      }

      .cls-10 {
        letter-spacing: -.05em;
      }

      .cls-11 {
        letter-spacing: 0em;
      }

      .cls-12 {
        letter-spacing: -.01em;
      }
    </style>
  </defs>
  <g id="Layer_2-2" data-name="Layer 2">
    <text class="cls-5" transform="translate(318.62 58.45)"><tspan x="0" y="0">Style Cutz</tspan></text>
    <g>
      <path class="cls-2" d="M196.71,171.49c-.26-1.03-.4-1.55-.66-2.58.65-.22.97-.34,1.62-.56,2.24-.67,3.68-1.41,4.33-2.25.65-.84.77-2.09.35-3.77-2.74-11.01-5.47-22.01-8.2-33.02-.42-1.68-1.12-2.73-2.12-3.15-1-.42-2.69-.38-5.07.13-.71.12-1.06.18-1.77.31-.26-1.03-.4-1.55-.66-2.58,9.06-2.33,13.59-3.44,22.69-5.55,6.05-1.41,10.84-1.44,14.31-.15,3.48,1.29,5.61,3.85,6.42,7.63,1.28,5.98-1.66,10.55-8.74,13.82,4.17-.27,7.44.36,9.8,1.88,2.36,1.52,3.87,3.91,4.57,7.15.58,2.74.41,5.26-.51,7.55-.92,2.3-2.54,4.26-4.88,5.9-2.33,1.64-5.39,2.89-9.17,3.77-8.94,2.08-13.41,3.17-22.31,5.45ZM204.47,142.36c3.09-.75,4.64-1.11,7.74-1.84,3.31-.77,5.76-2.32,7.36-4.67,1.6-2.34,2.06-5.06,1.38-8.16-.65-2.92-2.16-4.9-4.54-5.94-2.39-1.04-5.72-1.08-9.96-.08-2.32.54-3.95,1.11-4.91,1.7-.96.59-1.32,1.34-1.1,2.25,1.62,6.7,2.42,10.04,4.04,16.74ZM216.28,163.66c4.12-.97,7.06-2.57,8.85-4.83,1.79-2.27,2.32-5.06,1.59-8.38-.68-3.1-2.21-5.25-4.58-6.44-2.37-1.19-5.5-1.34-9.38-.44-3.03.71-4.55,1.07-7.57,1.8,1.51,6.26,2.27,9.39,3.78,15.65.36,1.5,1.11,2.45,2.23,2.85,1.12.4,2.82.33,5.08-.2Z"/>
      <path class="cls-2" d="M238.86,161.64c-.22-1.04-.33-1.56-.55-2.6.62-.24.93-.37,1.55-.61,1.11-.47,1.99-1,2.62-1.58.63-.58,1.13-1.34,1.5-2.27.37-.93.69-2.14.98-3.63,2.82-14.23,5.8-28.42,8.93-42.58,1.29-.24,1.93-.36,3.22-.59,7.83,12.22,15.51,24.52,23.07,36.92,1.11,1.76,2.19,3.07,3.25,3.94,1.05.87,2.58,1.24,4.57,1.11.54-.03.81-.04,1.35-.07.16,1.05.25,1.58.41,2.63-8.2,1.29-12.29,1.97-20.47,3.43-.19-1.05-.28-1.57-.47-2.62.93-.28,1.4-.42,2.33-.7,1.93-.53,3.02-1.32,3.27-2.38.25-1.06-.15-2.42-1.21-4.09-6.3-10.38-12.73-20.67-19.29-30.89.81-.15,1.22-.23,2.04-.38-2.42,11.83-4.7,23.7-6.83,35.58-.38,2.03-.13,3.49.72,4.39.86.9,2.26,1.25,4.2,1.07.82-.1,1.23-.15,2.05-.25.2,1.05.3,1.57.5,2.61-7.1,1.36-10.65,2.08-17.74,3.57ZM249.71,140.58c-.25-1.29-.38-1.94-.63-3.23,8.59-1.68,12.9-2.47,21.52-3.96.22,1.3.34,1.95.56,3.24-8.59,1.49-12.88,2.28-21.45,3.95Z"/>
      <path class="cls-2" d="M292.49,151.87c-.16-1.05-.24-1.58-.4-2.63.67-.16,1-.24,1.66-.4,2.28-.44,3.78-1.04,4.51-1.81.72-.77.96-2,.71-3.71-1.64-11.22-3.28-22.44-4.92-33.66-.25-1.71-.85-2.82-1.8-3.34-.95-.52-2.63-.65-5.04-.38-.71.05-1.07.08-1.78.13-.16-1.05-.24-1.58-.4-2.63,9.08-1.4,13.62-2.05,22.72-3.24,6.14-.81,10.86-.34,14.14,1.34,3.28,1.68,5.13,4.5,5.58,8.44.19,1.72-.01,3.47-.62,5.25-.6,1.78-1.79,3.45-3.56,5-1.77,1.55-4.29,2.81-7.58,3.79,2.58.38,4.75,1.24,6.52,2.58,1.76,1.34,3.26,3.2,4.5,5.56,1.24,2.37,2.32,5.31,3.25,8.82.24.87.65,1.55,1.23,2.04.58.5,1.44.71,2.57.63.62-.04.93-.06,1.56-.1.12,1.06.17,1.59.29,2.64-2.39.26-3.58.4-5.97.67-2.02.23-3.48-.02-4.4-.75-.92-.74-1.71-2.13-2.33-4.16-1.06-3.47-2.25-6.48-3.63-8.97-1.37-2.49-2.98-4.33-4.84-5.53-1.85-1.2-4.03-1.63-6.52-1.3-1.81.24-2.71.37-4.52.62.87,6.24,1.3,9.36,2.17,15.6.24,1.71.85,2.82,1.83,3.32.98.5,2.74.65,5.29.45.74-.04,1.11-.06,1.85-.1.14,1.06.21,1.58.34,2.64-8.98,1.17-13.46,1.81-22.42,3.19ZM302.99,123.66c2.56-.36,3.84-.53,6.41-.87,3.55-.47,6.29-1.81,8.25-4.02,1.95-2.22,2.76-4.78,2.41-7.7-.36-3.01-1.58-5.21-3.66-6.57-2.08-1.37-5.01-1.81-8.78-1.31-2.69.36-4.56.8-5.61,1.32-1.05.52-1.51,1.25-1.38,2.17.95,6.79,1.42,10.19,2.37,16.99Z"/>
      <path class="cls-2" d="M340.27,145.69c-.11-1.06-.17-1.59-.28-2.65.67-.13,1.01-.19,1.68-.31,2.29-.33,3.82-.85,4.58-1.59.76-.73,1.06-1.96.89-3.67-1.09-11.29-2.19-22.57-3.28-33.86-.17-1.72-.71-2.86-1.63-3.43-.92-.57-2.59-.78-5.01-.62-.71.02-1.07.03-1.78.04-.11-1.06-.17-1.59-.28-2.65,9.24-.97,13.86-1.4,23.12-2.16,6.16-.51,10.87.17,14.11,1.95,3.23,1.79,4.96,4.63,5.21,8.49.39,6.1-3.16,10.19-10.6,12.39,4.14.34,7.27,1.45,9.37,3.3,2.1,1.85,3.25,4.43,3.46,7.74.18,2.79-.36,5.26-1.6,7.4-1.24,2.14-3.12,3.84-5.66,5.12-2.53,1.28-5.72,2.07-9.57,2.38-9.1.74-13.65,1.16-22.73,2.12ZM352.11,118.03c3.15-.28,4.73-.42,7.88-.68,3.37-.28,6.01-1.45,7.92-3.53,1.91-2.08,2.76-4.7,2.54-7.87-.21-2.98-1.41-5.16-3.61-6.55-2.2-1.38-5.47-1.91-9.79-1.54-2.36.2-4.05.52-5.07.96-1.03.44-1.49,1.13-1.41,2.06.62,6.86.93,10.29,1.55,17.15ZM360.64,140.82c4.19-.35,7.32-1.5,9.41-3.48,2.09-1.98,3.02-4.66,2.78-8.06-.22-3.17-1.41-5.52-3.57-7.04-2.16-1.53-5.22-2.14-9.16-1.81-3.09.25-4.63.39-7.71.67.58,6.41.87,9.62,1.45,16.04.14,1.53.73,2.58,1.78,3.14,1.05.56,2.72.74,5.03.55Z"/>
      <path class="cls-2" d="M423.31,140.93c-1.84-.1-3.69-.16-5.55-.19-1.86-.02-3.4-.01-4.63.03-10.28.32-15.41.54-25.68,1.12-.06-1.06-.09-1.59-.15-2.66.68-.09,1.01-.14,1.69-.23,2.3-.22,3.85-.67,4.65-1.37.79-.69,1.15-1.9,1.06-3.63-.55-11.33-1.11-22.65-1.66-33.98-.08-1.72-.57-2.89-1.46-3.5-.89-.61-2.55-.9-4.97-.86-.71-.02-1.07-.02-1.78-.04-.06-1.06-.09-1.59-.15-2.66,10.83-.61,16.25-.85,27.1-1.18,1.83-.06,3.6-.13,5.33-.22,1.73-.09,3.43-.25,5.1-.47.54,4.53.8,6.79,1.33,11.32-1.14.02-1.72.03-2.86.06-.7-2.74-1.77-4.68-3.23-5.81-1.45-1.13-3.51-1.66-6.17-1.58-4.61.14-6.91.23-11.52.42.32,7.61.48,11.41.8,19.02,5.83-.25,8.74-.35,14.57-.51,1.74-.05,2.94-.43,3.6-1.14.66-.72,1.04-1.96,1.15-3.74.02-.5.03-.76.04-1.26,1.11-.03,1.66-.04,2.77-.06.12,6.1.19,9.15.31,15.26-1.09.02-1.64.03-2.73.06-.04-.53-.06-.8-.1-1.33-.14-1.72-.56-2.93-1.27-3.61-.72-.68-1.94-1-3.67-.95-5.81.16-8.71.26-14.52.51.27,6.38.4,9.57.67,15.95.06,1.4.38,2.39.94,2.97.57.58,1.52.89,2.84.94,1.32.04,3.1.02,5.32-.05,2.31-.08,4.2-.47,5.67-1.19,1.47-.72,2.67-1.81,3.61-3.28.94-1.47,1.69-3.45,2.26-5.93,1.14-.02,1.72-.04,2.86-.06-.64,5.53-.96,8.29-1.58,13.82Z"/>
      <path class="cls-2" d="M432.06,140.37c-.01-1.06-.02-1.6-.03-2.66.68-.06,1.02-.1,1.7-.16,2.31-.12,3.88-.5,4.7-1.16.82-.66,1.23-1.85,1.23-3.58-.04-11.34-.09-22.68-.13-34.02,0-1.73-.44-2.92-1.31-3.56-.86-.65-2.51-1.01-4.92-1.08-.71-.05-1.06-.07-1.77-.12-.01-1.06-.02-1.6-.03-2.66,9.16-.11,13.74-.11,22.89-.01,6.17.06,10.78,1.19,13.78,3.31,3,2.13,4.44,5.18,4.33,9.14-.05,1.73-.5,3.43-1.35,5.11-.85,1.68-2.26,3.16-4.22,4.45-1.96,1.29-4.64,2.17-8.02,2.68,2.5.74,4.52,1.9,6.08,3.47,1.55,1.57,2.78,3.62,3.67,6.14.89,2.52,1.55,5.58,1.97,9.19.12.89.43,1.62.93,2.2.5.57,1.32.9,2.45.98.62.05.93.07,1.55.12-.03,1.06-.05,1.6-.09,2.66-2.4-.08-3.6-.11-6-.17-2.02-.05-3.44-.5-4.24-1.36-.81-.86-1.39-2.35-1.71-4.45-.56-3.59-1.32-6.74-2.32-9.39-1-2.65-2.34-4.71-4-6.15-1.66-1.45-3.75-2.18-6.26-2.2-1.82-.01-2.73-.02-4.55-.02-.02,6.3-.03,9.45-.04,15.75,0,1.73.44,2.91,1.34,3.54.89.63,2.62,1.03,5.16,1.19.74.06,1.1.09,1.84.16-.01,1.06-.02,1.6-.03,2.66-9.04-.1-13.56-.1-22.59,0ZM446.39,113.91c2.58,0,3.87.01,6.45.04,3.58.03,6.47-.9,8.71-2.82,2.24-1.92,3.4-4.35,3.46-7.29.06-3.03-.83-5.37-2.69-7.02-1.86-1.64-4.7-2.5-8.49-2.53-2.71-.03-4.62.15-5.73.52-1.11.37-1.66,1.02-1.67,1.95-.02,6.86-.03,10.29-.05,17.15Z"/>
      <path class="cls-2" d="M511.4,143.32c-2.21-.15-4.35-.53-6.44-1.12-2.09-.6-4.31-1.71-6.68-3.34.26-4.67.39-7,.64-11.67,1.12.06,1.67.09,2.79.16.16,3.84,1.2,6.85,3.11,9.02,1.91,2.17,4.62,3.37,8.15,3.62,2.69.19,5-.4,6.96-1.77,1.96-1.37,3.04-3.33,3.25-5.89.16-1.95-.26-3.66-1.25-5.12-.99-1.46-2.68-2.96-5.07-4.49-3.07-1.93-4.61-2.9-7.71-4.81-2.93-1.87-5.13-3.72-6.6-5.56-1.47-1.84-2.14-4.06-2-6.67.14-2.52.99-4.75,2.55-6.69,1.56-1.94,3.7-3.44,6.41-4.49,2.71-1.04,5.85-1.44,9.4-1.19,2.07.15,4.07.49,5.99,1.01,1.92.52,3.77,1.38,5.55,2.56-.29,3.52-.44,5.27-.74,8.79-1.14-.1-1.71-.14-2.85-.24-.26-2.83-1.23-4.97-2.92-6.41-1.69-1.44-3.94-2.27-6.74-2.47-3.15-.22-5.64.31-7.47,1.6-1.83,1.29-2.82,3.12-2.96,5.5-.1,1.63.38,3.14,1.44,4.54,1.06,1.4,2.52,2.68,4.39,3.83,3.25,1.99,4.87,2.99,8.09,5,2.31,1.44,4.17,2.82,5.56,4.12,1.39,1.31,2.37,2.71,2.94,4.21.57,1.5.77,3.25.6,5.25-.24,2.74-1.22,5.11-2.93,7.09-1.71,1.99-3.91,3.47-6.58,4.46-2.68.99-5.63,1.36-8.87,1.14Z"/>
      <path class="cls-2" d="M535.33,144.55c.1-1.06.15-1.59.25-2.65.68,0,1.02.01,1.71.02,1.8.08,3.12-.03,3.98-.32.86-.29,1.45-.75,1.78-1.37.32-.62.54-1.42.63-2.4,1.13-11.28,2.27-22.57,3.4-33.85.1-.98.05-1.8-.16-2.48-.2-.68-.72-1.24-1.54-1.7-.82-.46-2.16-.82-4.02-1.09-.7-.12-1.05-.18-1.75-.3.1-1.06.15-1.59.25-2.65,9.16.85,13.73,1.33,22.88,2.38-.12,1.06-.18,1.59-.3,2.64-.71-.03-1.07-.04-1.78-.06-1.78-.11-3.12-.02-4.05.25-.92.28-1.57.72-1.93,1.34-.36.62-.6,1.41-.7,2.39-1.21,11.28-2.42,22.55-3.63,33.83-.1.97-.05,1.8.16,2.48.21.68.72,1.25,1.53,1.72.81.46,2.05.84,3.73,1.12.67.13,1.01.2,1.68.33-.12,1.06-.18,1.59-.3,2.64-8.71-1-13.07-1.46-21.8-2.27ZM548.95,121.55c.13-1.28.2-1.92.33-3.2,11.19,1.23,22.33,2.58,33.48,4.05-.18,1.28-.26,1.91-.44,3.19-11.12-1.47-22.23-2.81-33.38-4.04ZM569.07,148.26c.13-1.06.2-1.58.34-2.64.68.03,1.02.05,1.71.08,1.79.14,3.13.08,4-.18.87-.26,1.48-.7,1.82-1.31.35-.61.59-1.4.72-2.38,1.52-11.24,3.04-22.48,4.56-33.71.13-.97.11-1.8-.08-2.48-.18-.68-.68-1.27-1.48-1.75-.81-.48-2.13-.89-3.98-1.23-.7-.15-1.05-.22-1.75-.36.13-1.06.2-1.58.34-2.64,9.13,1.16,13.69,1.8,22.8,3.16-.16,1.05-.24,1.58-.39,2.63-.71-.05-1.07-.08-1.78-.12-1.77-.17-3.13-.13-4.06.11-.93.24-1.59.67-1.98,1.27-.39.61-.65,1.39-.78,2.36l-4.78,33.68c-.14.97-.11,1.8.08,2.49.19.69.68,1.28,1.47,1.77.79.49,2.02.91,3.69,1.25.67.16,1,.23,1.66.39-.16,1.05-.24,1.58-.39,2.63-8.68-1.3-13.03-1.9-21.73-3.01Z"/>
      <path class="cls-2" d="M621.63,157.11c-5.11-.93-9.4-2.74-12.91-5.46-3.5-2.72-6.03-6.1-7.59-10.18-1.55-4.07-1.96-8.6-1.19-13.58.77-4.93,2.58-9.09,5.47-12.46,2.89-3.37,6.6-5.76,11.12-7.15,4.52-1.39,9.54-1.59,15.01-.59,5.37.98,9.85,2.92,13.4,5.76,3.55,2.84,6.04,6.35,7.46,10.51,1.42,4.15,1.59,8.72.54,13.7-1.02,4.84-3.04,8.87-6.03,12.11-2.99,3.24-6.66,5.5-11,6.81-4.34,1.31-9.09,1.48-14.3.53ZM624.27,153.75c3.5.65,6.68.46,9.57-.58,2.89-1.03,5.33-2.78,7.31-5.26,1.99-2.48,3.37-5.59,4.13-9.34.93-4.57.85-8.81-.27-12.69-1.12-3.89-3.08-7.15-5.89-9.79-2.81-2.63-6.29-4.33-10.43-5.08-3.65-.66-6.97-.45-9.93.63-2.96,1.08-5.41,2.89-7.34,5.44-1.93,2.54-3.2,5.71-3.82,9.48-.74,4.56-.5,8.77.71,12.64,1.21,3.86,3.18,7.07,5.92,9.63,2.74,2.56,6.08,4.19,10.04,4.93Z"/>
      <path class="cls-2" d="M653.27,162.7c.22-1.04.34-1.56.56-2.6.68.09,1.02.13,1.7.23,1.74.28,3.05.35,3.94.18.89-.16,1.54-.54,1.97-1.14.43-.6.75-1.37.96-2.33,2.48-11.07,4.96-22.13,7.44-33.2.22-1,.26-1.85.12-2.56-.15-.7-.61-1.32-1.37-1.85-.77-.53-2.04-1.04-3.81-1.52-.69-.21-1.03-.31-1.71-.51.22-1.04.34-1.56.56-2.6,8.68,1.88,13.01,2.86,21.66,4.92,6,1.43,10.13,3.61,12.38,6.46,2.25,2.85,2.89,6.12,1.95,9.78-.7,2.71-2.01,5-3.92,6.87-1.91,1.87-4.37,3.1-7.37,3.7-3,.6-6.55.43-10.66-.5-2.95-.67-4.42-1-7.37-1.65.28-1.2.41-1.8.69-3,2.16.49,3.24.75,5.39,1.25,2.55.6,4.9.74,7.06.42,2.15-.32,3.99-1.15,5.51-2.51,1.52-1.36,2.59-3.28,3.21-5.77.76-3.03.51-5.63-.74-7.79-1.25-2.16-3.67-3.68-7.24-4.53-1.93-.46-3.53-.68-4.81-.67-1.28.01-2.03.55-2.28,1.59-2.71,11.71-5.41,23.42-8.12,35.12-.23,1-.28,1.85-.15,2.55.13.7.63,1.33,1.5,1.89.87.56,2.24,1.11,4.11,1.65.65.21.98.32,1.63.53-.25,1.03-.37,1.55-.62,2.59-8.85-2.13-13.28-3.14-22.17-5.06Z"/>
    </g>
    <line class="cls-9" x1="0" y1="222.71" x2="158.89" y2="222.71"/>
    <line class="cls-9" x1="0" y1="237.31" x2="158.89" y2="237.31"/>
    <line class="cls-9" x1="740.42" y1="222.71" x2="899.31" y2="222.71"/>
    <line class="cls-9" x1="740.42" y1="237.31" x2="899.31" y2="237.31"/>
    <text class="cls-4" transform="translate(184.35 244.97)"><tspan x="0" y="0">CU</tspan><tspan class="cls-8" x="73.4" y="0">T</tspan></text>
    <text class="cls-3" transform="translate(356.1 244.97)"><tspan x="0" y="0">SH</tspan><tspan class="cls-7" x="69.4" y="0">A</tspan><tspan class="cls-6" x="98.82" y="0">VE</tspan></text>
    <text class="cls-1" transform="translate(575.85 245.45)"><tspan class="cls-10" x="0" y="0">F</tspan><tspan class="cls-11" x="28.2" y="0">A</tspan><tspan class="cls-12" x="64.95" y="0">D</tspan><tspan x="105.51" y="0">E</tspan></text>
    <rect class="cls-2" x="316.77" y="221.7" width="14.54" height="14.54" transform="translate(256.82 -162.06) rotate(45)"/>
    <rect class="cls-2" x="543.53" y="221.7" width="14.54" height="14.54" transform="translate(323.24 -322.41) rotate(45)"/>
  </g>
</svg>